<?xml version="1.0" encoding="utf-8"?>
<!-- Generator: Adobe Illustrator 16.2.1, SVG Export Plug-In . SVG Version: 6.00 Build 0)  -->
<!DOCTYPE svg PUBLIC "-//W3C//DTD SVG 1.1//EN" "http://www.w3.org/Graphics/SVG/1.1/DTD/svg11.dtd">
<svg version="1.1" id="Layer_1" xmlns="http://www.w3.org/2000/svg" xmlns:xlink="http://www.w3.org/1999/xlink" x="0px" y="0px"
	 width="453.564px" height="79.644px" viewBox="0 0 453.564 79.644" enable-background="new 0 0 453.564 79.644"
	 xml:space="preserve">
<rect x="11.854" y="11.527" fill="#41B6B6" width="56.682" height="8.712"/>
<polygon fill="#FFFFFF" points="59.679,20.239 59.679,59.49 20.723,59.49 20.723,20.239 11.854,20.239 11.854,59.49 11.854,68.207 
	20.723,68.207 59.679,68.207 68.536,68.207 68.536,20.239 "/>
<rect x="11.854" y="11.527" fill="#41B6B6" width="56.682" height="8.712"/>
<polygon fill="#FFFFFF" points="59.679,20.239 59.679,59.49 20.723,59.49 20.723,20.239 11.854,20.239 11.854,59.49 11.854,68.207 
	20.723,68.207 59.679,68.207 68.536,68.207 68.536,20.239 "/>
<g>
	<path fill="#FFFFFF" d="M142.722,56.275c-3.816,10.515-13.393,12.673-20.162,12.673c-7.345,0-15.772-3.601-15.772-18.361
		c0-15.701,5.114-36.079,24.268-36.079c6.7,0,12.533,2.665,12.533,9.648c0,3.818-1.37,6.626-5.042,6.626
		c-1.153,0-2.737-0.288-4.106-1.872c1.803-0.503,3.17-4.104,3.17-5.904c0-1.153-0.36-5.113-4.968-5.113
		c-8.858,0-14.548,18.292-14.548,31.107c0,9.435,1.729,13.469,9.508,13.469c5.542,0,10.799-2.306,13.464-6.914L142.722,56.275z"/>
	<path fill="#FFFFFF" d="M169.228,42.377c0.431,0.431,1.081,0.648,2.086,0.648c3.385,0,4.897-2.448,7.562-3.527l0.288,1.512
		c-2.231,2.808-5.978,5.183-10.153,6.335c-1.367,14.474-9.217,21.603-16.417,21.603c-7.705,0-11.018-3.239-11.018-11.809
		c0-17.715,9.001-25.347,18.94-25.347C167.355,31.792,169.083,37.121,169.228,42.377z M163.683,48.065
		c-2.088,0-3.024-1.513-3.024-3.239c0-2.089,1.224-4.321,3.167-5.042c-0.217-2.375-1.007-3.744-3.025-3.744
		c-6.769,0-9.648,14.69-9.648,20.452c0,4.321,2.017,5.471,4.826,5.471C160.37,61.962,162.818,55.05,163.683,48.065z"/>
	<path fill="#FFFFFF" d="M202.357,56.996c-0.216,0.791-0.362,1.582-0.362,2.303c0,1.584,0.793,2.663,3.602,2.663
		c2.881,0,3.96-2.232,6.842-4.535h2.449c-3.313,3.313-8.787,11.09-14.403,11.09c-5.618,0-8.929-2.449-8.929-7.851
		c0-1.152,0.143-2.303,0.432-3.67l2.736-12.961c0.143-0.65,0.217-1.298,0.217-1.874c0-2.592-1.37-4.249-3.313-4.249
		c-1.727,0-3.025,0.505-4.537,1.512l-6.121,29.093h-10.37l7.636-36.005h10.368l-0.864,3.887c2.953-2.158,6.266-3.887,9.434-3.887
		c3.887,0,8.281,4.177,8.281,9c0,0.577,0,1.153-0.143,1.729L202.357,56.996z"/>
	<path fill="#FFFFFF" d="M228.718,21.134c0,0-1.081,4.895-2.448,11.377h4.32l-0.574,2.879h-4.323
		c-4.968,22.756-4.895,23.477-4.895,23.837c0,1.655,0.719,2.734,3.599,2.734c2.879,0,6.624-4.03,9.505-6.336h2.449
		c-3.313,3.313-11.449,12.891-17.065,12.891c-5.547,0-8.932-2.449-8.932-7.851c0-3.815,3.744-19.08,4.971-25.275h-2.379l0.576-2.879
		h2.379l2.158-9.937L228.718,21.134z"/>
	<path fill="#FFFFFF" d="M247.803,32.512l-0.791,3.601c2.591-2.017,5.473-3.601,8.496-3.601c3.239,0,5.185,1.872,5.185,4.609
		c0,2.52-1.872,5.616-5.4,5.616c-4.034,0-2.017-4.752-4.177-4.752s-3.313,0.791-4.971,2.304l-5.976,28.229h-10.37l7.635-36.005
		H247.803z"/>
	<path fill="#FFFFFF" d="M274.811,32.512l-5.187,24.484c-0.143,0.791-0.286,1.582-0.286,2.232c0,1.584,0.72,2.734,3.599,2.734
		s6.624-4.03,9.505-6.336h2.449c-3.311,3.313-11.449,12.891-17.065,12.891c-5.547,0-9.003-2.449-9.003-7.851
		c0-1.079,0.145-2.303,0.431-3.67l5.187-24.484H274.811z M271.496,17.245c3.17,0,5.761,2.592,5.761,5.762
		c0,3.168-2.591,5.688-5.761,5.688c-3.168,0-5.688-2.52-5.688-5.688C265.809,19.836,268.328,17.245,271.496,17.245z"/>
	<path fill="#FFFFFF" d="M297.423,18.109l-3.458,16.346c1.658-1.225,3.818-2.087,6.195-2.087c6.914,0,9.146,4.897,9.146,9.144
		c0,11.307-6.193,27.219-19.085,27.219c-7.128,0-11.88-2.015-11.88-8.207c0-1.01,0.145-2.232,0.431-3.528l7.993-37.446
		L297.423,18.109z M297.135,36.689c-0.722,0-3.239,0.503-3.889,1.006l-4.104,19.301c-0.359,1.727-0.576,3.025-0.576,3.961
		c0,2.158,1.01,2.663,3.167,2.663c5.907,0,9.508-16.417,9.508-21.603C301.241,37.695,298.936,36.689,297.135,36.689z"/>
	<path fill="#FFFFFF" d="M338.618,42.377c0.431,0.431,1.079,0.648,2.087,0.648c3.384,0,4.896-2.448,7.562-3.527l0.288,1.512
		c-2.232,2.808-5.976,5.183-10.153,6.335c-1.37,14.474-9.218,21.603-16.42,21.603c-7.705,0-11.016-3.239-11.016-11.809
		c0-17.715,9-25.347,18.938-25.347C336.746,31.792,338.473,37.121,338.618,42.377z M333.071,48.065
		c-2.089,0-3.025-1.513-3.025-3.239c0-2.089,1.227-4.321,3.17-5.042c-0.217-2.375-1.008-3.744-3.025-3.744
		c-6.769,0-9.648,14.69-9.648,20.452c0,4.321,2.015,5.471,4.823,5.471C329.76,61.962,332.208,55.05,333.071,48.065z"/>
	<path fill="#FFFFFF" d="M375.561,32.512l-5.183,24.484c-0.145,0.791-0.29,1.582-0.29,2.232c0,1.584,0.721,2.734,3.601,2.734
		c2.882,0,6.626-4.03,9.508-6.336h2.448c-3.315,3.313-11.451,12.891-17.067,12.891c-4.683,0-7.85-1.728-8.786-5.474
		c-2.161,2.953-5.4,5.904-9.794,5.904c-6.912,0-8.927-4.896-8.927-9.144c0-12.385,4.463-27.221,18.864-27.221
		c1.729,0,3.529,0.722,4.827,1.8l0.431-1.872H375.561z M350.791,57.858c0,4.321,2.375,5.114,4.178,5.114
		c1.655,0,3.239-1.584,4.606-3.602c0.074-0.719,0.217-1.512,0.433-2.375l4.033-19.084c-1.151-1.008-2.52-1.296-3.53-1.296
		C355.111,36.616,350.791,48.065,350.791,57.858z"/>
	<path fill="#FFFFFF" d="M395.083,32.512l-0.793,3.601c2.591-2.017,5.473-3.601,8.498-3.601c3.241,0,5.183,1.872,5.183,4.609
		c0,2.52-1.872,5.616-5.399,5.616c-4.035,0-2.015-4.752-4.178-4.752c-2.158,0-3.311,0.791-4.966,2.304l-5.98,28.229h-10.37
		l7.636-36.005H395.083z"/>
	<path fill="#FFFFFF" d="M433.898,56.996c-0.216,0.862-0.359,1.656-0.359,2.449c0,1.512,0.576,2.663,2.591,2.663
		c0.507,0,1.296,0,1.872-0.214c-2.015,6.192-5.04,6.624-7.488,6.624c-4.178,0-6.409-2.161-7.128-5.402
		c-2.163,2.954-5.4,5.833-9.72,5.833c-6.917,0-8.932-4.896-8.932-9.144c0-12.385,4.464-27.221,18.868-27.221
		c1.729,0,3.528,0.791,4.823,1.8l3.168-14.833l10.587-1.441L433.898,56.996z M414.454,57.858c0,4.321,2.379,5.114,4.178,5.114
		c1.655,0,3.167-1.584,4.537-3.527c0.074-0.793,0.217-1.586,0.433-2.449l4.104-19.156c-1.153-0.936-2.522-1.224-3.527-1.224
		C418.775,36.616,414.454,48.065,414.454,57.858z"/>
</g>
</svg>
